<?xml version="1.0" standalone="no"?>
<!DOCTYPE svg PUBLIC "-//W3C//DTD SVG 20010904//EN"
 "http://www.w3.org/TR/2001/REC-SVG-20010904/DTD/svg10.dtd">
<svg version="1.0" xmlns="http://www.w3.org/2000/svg"
 width="256.000000pt" height="256.000000pt" viewBox="0 0 256.000000 256.000000"
 preserveAspectRatio="xMidYMid meet">

<g transform="translate(0.000000,256.000000) scale(0.100000,-0.100000)"
fill="#000000" stroke="none">
<path d="M818 2523 c-56 -26 -78 -41 -78 -55 0 -10 -7 -18 -15 -18 -8 0 -15
-7 -15 -15 0 -9 7 -18 15 -21 12 -5 15 -32 15 -160 0 -88 -4 -154 -9 -154 -5
0 -12 -8 -14 -17 -3 -10 -5 14 -6 52 0 40 -6 76 -13 83 -17 17 -254 17 -265 0
-4 -7 -7 -96 -7 -198 l1 -185 -6 164 c-4 118 -10 166 -18 169 -7 2 -13 -3 -13
-12 0 -12 -10 -16 -34 -16 -19 0 -37 -6 -39 -12 -3 -7 -6 -3 -6 10 -1 21 -4
22 -89 20 -48 -1 -93 2 -100 6 -8 5 -12 -2 -13 -21 0 -18 -3 -23 -7 -13 -4 8
-21 16 -39 18 -46 5 -63 -33 -63 -141 l0 -85 34 -16 c19 -9 43 -16 55 -16 12
0 21 -6 21 -14 0 -14 106 -40 210 -52 115 -13 114 -13 125 -185 l5 -97 -57 -6
c-248 -29 -294 -82 -105 -121 l57 -11 -5 -160 c-5 -158 -6 -633 -1 -709 2 -30
-3 -43 -19 -55 -23 -18 -24 -57 -1 -52 7 1 44 -5 81 -14 88 -21 321 -16 390 9
28 10 47 13 51 6 3 -6 11 -3 20 7 12 14 10 19 -14 40 l-28 24 11 177 c7 123 7
223 0 323 -5 80 -10 204 -10 275 l0 131 66 11 c64 11 114 34 114 53 0 26 -104
55 -239 66 l-82 7 6 86 c8 124 16 176 23 164 4 -5 15 -12 25 -16 9 -3 17 -12
17 -19 0 -7 72 -56 160 -108 282 -167 303 -175 378 -148 29 11 35 10 47 -5 11
-15 32 -17 166 -17 85 0 170 -5 190 -10 31 -9 37 -16 52 -62 18 -60 33 -142
42 -238 4 -36 9 -72 11 -82 11 -38 135 -67 156 -35 5 7 6 26 3 42 -3 17 -14
104 -25 194 -11 90 -25 179 -32 198 -11 30 -16 34 -38 28 -45 -13 -523 -18
-515 -6 4 7 60 11 156 11 144 0 149 1 149 21 0 11 -5 17 -10 14 -6 -3 -17 1
-26 9 -8 9 -12 17 -7 18 4 1 -62 5 -147 8 l-154 5 -32 240 c-18 132 -31 241
-29 243 1 1 26 5 55 9 34 4 54 11 58 22 12 34 46 73 86 99 l41 27 -100 6 -100
5 90 2 90 2 2 35 c2 20 -2 35 -8 35 -6 0 -8 8 -5 18 5 16 -4 17 -124 12 -72
-3 -130 -3 -131 0 0 3 -2 12 -4 20 -1 8 -6 48 -10 88 -7 70 -6 72 15 72 13 0
20 5 18 13 -4 9 -47 12 -164 14 l-159 1 -77 -35z m320 -56 c3 -17 -1 -18 -45
-11 -55 8 -57 9 -48 24 4 6 25 10 48 8 31 -2 43 -8 45 -21z m12 -47 c0 -5 -2
-10 -4 -10 -3 0 -8 5 -11 10 -3 6 -1 10 4 10 6 0 11 -4 11 -10z m10 -50 c14
-4 -11 -5 -55 -2 -44 2 -82 6 -84 8 -8 7 114 2 139 -6z m-473 -188 c6 -4 -47
-7 -117 -7 -70 0 -126 3 -123 8 6 9 224 9 240 -1z m-400 -748 c-3 -3 -12 -4
-19 -1 -8 3 -5 6 6 6 11 1 17 -2 13 -5z m303 -25 c26 -15 -191 -10 -240 5 -42
13 -36 14 90 9 74 -3 142 -9 150 -14z m123 4 c-7 -2 -21 -2 -30 0 -10 3 -4 5
12 5 17 0 24 -2 18 -5z"/>
<path d="M1238 2553 c6 -2 18 -2 25 0 6 3 1 5 -13 5 -14 0 -19 -2 -12 -5z"/>
<path d="M1330 2548 c0 -13 48 -16 353 -22 193 -3 380 -9 415 -12 46 -5 62 -3
62 6 0 9 -13 11 -51 6 -29 -4 -48 -3 -45 2 6 10 -142 19 -491 28 -213 6 -243
5 -243 -8z"/>
<path d="M2180 2519 c0 -4 18 -9 40 -11 22 -2 40 -1 40 3 0 4 -18 9 -40 11
-22 2 -40 1 -40 -3z"/>
<path d="M2278 2503 c7 -3 16 -2 19 1 4 3 -2 6 -13 5 -11 0 -14 -3 -6 -6z"/>
<path d="M2320 2493 c8 -3 22 -11 30 -17 13 -10 13 -9 1 7 -7 9 -21 17 -30 16
-13 0 -14 -1 -1 -6z"/>
<path d="M400 2415 c-7 -8 -27 -15 -44 -15 -18 0 -36 -4 -41 -9 -6 -4 -42 -13
-82 -20 -89 -14 -123 -26 -123 -45 0 -10 -6 -13 -16 -9 -20 7 -94 -26 -94 -44
0 -16 -5 -17 56 7 29 10 54 17 57 14 3 -3 40 0 82 6 56 8 80 9 88 1 16 -16 27
-13 28 7 0 9 3 12 5 7 2 -6 20 -9 39 -7 29 3 35 1 36 -14 1 -14 3 -12 8 6 6
24 11 25 87 28 44 1 113 -1 153 -6 l72 -8 -3 55 -3 56 -146 3 c-121 2 -148 0
-159 -13z"/>
<path d="M1635 2396 c-27 -8 -45 -15 -40 -16 6 -1 -10 -7 -35 -14 l-45 -12 4
-50 c1 -27 5 -51 8 -54 6 -7 22 23 17 32 -3 4 2 5 10 2 8 -3 19 3 26 15 6 11
14 20 18 20 4 -1 10 0 15 1 4 1 13 3 20 4 6 0 13 13 15 29 l3 27 107 1 c167 2
325 8 330 14 3 3 -24 5 -59 5 -35 0 -127 2 -204 5 -99 3 -155 0 -190 -9z"/>
<path d="M2052 2095 c-2 -295 2 -326 43 -334 17 -3 16 -1 -5 17 l-25 20 -5
289 -6 288 -2 -280z"/>
<path d="M2270 2324 c-14 -2 -64 -6 -112 -9 l-88 -7 0 -37 c0 -58 14 -68 105
-74 112 -8 118 -16 113 -163 -4 -141 -6 -144 -109 -144 l-78 0 -7 -35 c-10
-53 6 -65 86 -65 72 0 83 -6 113 -65 16 -32 55 -207 107 -485 52 -275 61 -301
111 -319 18 -6 36 -11 41 -11 6 0 8 133 6 333 -4 316 -5 338 -32 467 -30 149
-100 365 -153 474 -18 39 -36 88 -39 109 -5 26 -11 37 -23 36 -9 -1 -27 -3
-41 -5z"/>
<path d="M1433 2190 c-27 -16 -63 -65 -63 -85 0 -9 103 5 113 14 9 9 -2 91
-12 91 -3 0 -20 -9 -38 -20z"/>
<path d="M2103 2169 c-9 -9 -13 -49 -13 -126 0 -131 1 -133 95 -124 l60 6 3
114 c1 63 -1 118 -5 122 -16 15 -127 21 -140 8z m54 -141 c-2 -13 -4 -3 -4 22
0 25 2 35 4 23 2 -13 2 -33 0 -45z m-40 -60 c-3 -8 -6 -5 -6 6 -1 11 2 17 5
13 3 -3 4 -12 1 -19z"/>
<path d="M1362 2065 c0 -16 2 -22 5 -12 2 9 2 23 0 30 -3 6 -5 -1 -5 -18z"/>
<path d="M1390 1976 c0 -2 8 -10 18 -17 15 -13 16 -12 3 4 -13 16 -21 21 -21
13z"/>
<path d="M2271 1654 c0 -11 3 -14 6 -6 3 7 2 16 -1 19 -3 4 -6 -2 -5 -13z"/>
<path d="M2291 1574 c0 -11 3 -14 6 -6 3 7 2 16 -1 19 -3 4 -6 -2 -5 -13z"/>
<path d="M2305 1508 c4 -18 9 -43 12 -55 4 -16 -2 -25 -24 -37 -15 -8 -23 -15
-17 -16 7 0 21 8 33 18 20 16 21 21 11 70 -7 28 -14 52 -17 52 -2 0 -2 -15 2
-32z"/>
<path d="M2212 1377 c-12 -13 -22 -28 -22 -34 0 -6 -11 -8 -23 -6 -13 3 -30
-2 -38 -9 -8 -8 -18 -15 -23 -15 -16 -2 -46 -57 -46 -85 0 -29 45 -74 86 -84
40 -10 93 3 130 31 19 14 34 24 34 21 0 -15 -74 -58 -111 -65 l-44 -9 45 -1
c94 -2 171 78 138 145 -16 33 -72 74 -102 74 -14 -1 -8 -6 17 -14 56 -21 67
-33 66 -80 0 -22 -3 -34 -6 -26 -21 59 -37 80 -74 94 -48 19 -50 40 -6 66 18
11 25 20 16 20 -8 0 -25 -10 -37 -23z m-57 -127 c-10 -11 -15 -28 -12 -40 3
-11 1 -18 -4 -14 -14 8 -11 36 8 56 9 10 18 18 21 18 3 0 -3 -9 -13 -20z"/>
<path d="M2530 520 c0 -11 7 -20 15 -20 8 0 15 9 15 20 0 11 -7 20 -15 20 -8
0 -15 -9 -15 -20z"/>
<path d="M748 393 c7 -3 16 -2 19 1 4 3 -2 6 -13 5 -11 0 -14 -3 -6 -6z"/>
<path d="M448 383 c6 -2 18 -2 25 0 6 3 1 5 -13 5 -14 0 -19 -2 -12 -5z"/>
<path d="M688 383 c6 -2 18 -2 25 0 6 3 1 5 -13 5 -14 0 -19 -2 -12 -5z"/>
<path d="M548 373 c17 -2 47 -2 65 0 17 2 3 4 -33 4 -36 0 -50 -2 -32 -4z"/>
<path d="M2520 288 c-14 -6 -39 -10 -55 -9 -54 1 -55 -7 -14 -114 21 -55 41
-115 45 -133 5 -27 11 -32 35 -32 l29 0 0 144 c0 80 -3 147 -7 149 -5 3 -19 0
-33 -5z"/>
</g>
</svg>
